<?xml version="1.0" encoding="utf-8"?>
<!-- Generator: Adobe Illustrator 23.0.0, SVG Export Plug-In . SVG Version: 6.00 Build 0)  -->
<svg version="1.1" id="Layer_2" xmlns="http://www.w3.org/2000/svg" xmlns:xlink="http://www.w3.org/1999/xlink" x="0px" y="0px"
	 viewBox="0 0 80 80" style="enable-background:new 0 0 80 80;" xml:space="preserve">
<style type="text/css">
	.st0{fill:#CDB064;}
</style>
<title>DIGITAL</title>
<path class="st0" d="M17.1,59.6c0,0.6,0.5,1.2,1.1,1.2c0.6,0,1.2-0.5,1.2-1.1c0,0,0-0.1,0-0.1V47.3h0.1c0.7,0,1.4-0.1,2-0.2
	c0.7-0.2,1.1-0.9,1-1.6c-0.1-0.5-0.5-0.9-1-1c-0.5-0.1-1-0.3-1.2-0.8c-0.6-0.9-0.5-2.4-0.3-3.4h6.1c3.9,0,7.1-3.2,7.1-7.1V19
	c0-3.9-3.2-7.1-7.1-7.1h-6.7v-1.8h5.9c0.6,0,1.2-0.5,1.2-1.1c0-0.6-0.5-1.2-1.1-1.2c0,0-0.1,0-0.1,0h-5.9V6.5c0-1.9,1.5-3.5,3.5-3.5
	c0,0,0,0,0,0h34.4c1.9,0,3.5,1.6,3.5,3.5c0,0,0,0,0,0v1.3H30.2C29.5,7.8,29,8.3,29,9c0,0.6,0.5,1.1,1.1,1.1h30.5v5.4
	c0,0.6,0.6,1.1,1.2,1.1c0.6,0,1.1-0.5,1.1-1.1v-9c0-3.2-2.6-5.8-5.8-5.8H22.8c-3.2,0-5.8,2.6-5.8,5.8v5.4H7.8
	c-3.9,0-7.1,3.2-7.1,7.1v14.2c0,3.9,3.2,7.1,7.1,7.1h4.7c0.3,2.6,1.3,4.5,2.8,5.7c0.5,0.4,1.1,0.7,1.7,0.9L17.1,59.6z M14.7,39.1
	c0-0.6-0.5-1.1-1.1-1.1H7.8C5.2,38,3,35.9,3,33.2V19c0-2.6,2.1-4.8,4.8-4.8h18.2c2.6,0,4.8,2.1,4.8,4.8v14.2c0,2.6-2.1,4.8-4.8,4.8
	h-7c-0.5,0-1,0.3-1.1,0.8c-0.1,0.4-1,3.7,0.3,6c-0.5-0.1-1-0.3-1.4-0.7C15.6,43.3,14.9,41.6,14.7,39.1z"/>
<path class="st0" d="M37,75.7h6.1c0.6,0,1.1-0.6,1.1-1.2c0-0.6-0.5-1.1-1.1-1.1H37c-0.6,0-1.2,0.5-1.2,1.1
	C35.7,75.2,36.2,75.7,37,75.7C36.9,75.7,36.9,75.7,37,75.7z"/>
<path class="st0" d="M24.5,24.1c0-2.7-1.9-4.8-4.3-4.8c-1.2,0-2.3,0.4-3.2,1.1c-0.9-0.7-2-1.1-3.2-1.1c-2.4,0-4.3,2.1-4.3,4.8
	c0,1.7,0.9,5,6.7,8.1c0.5,0.3,1.2,0.3,1.7,0C23.7,29.1,24.5,25.8,24.5,24.1z M11.8,24.1c0-1.2,0.7-2.5,2-2.5c0.8,0,1.5,0.3,2,0.9
	c0.6,0.7,1.7,0.7,2.4,0c0,0,0,0,0,0c0.5-0.5,1.2-0.9,2-0.9c1.3,0,2,1.3,2,2.5c0,2-1.9,4.1-5.2,5.9C13.7,28.2,11.8,26.1,11.8,24.1z"
	/>
<path class="st0" d="M72.2,30.6H63V20.3c0-0.6-0.6-1.1-1.2-1.1c-0.6,0-1.1,0.5-1.1,1.1v10.3H54c-3.9,0-7.1,3.2-7.1,7.1V52
	c0,3.9,3.2,7.1,7.1,7.1h6.1c0.2,1,0.3,2.5-0.3,3.4c-0.3,0.4-0.7,0.7-1.2,0.8c-0.7,0.1-1.2,0.8-1.1,1.5c0.1,0.5,0.5,0.9,1,1
	c0.7,0.1,1.3,0.2,2,0.2h0.1v3.9H19.4v-5.4c0-0.6-0.5-1.2-1.1-1.2c-0.6,0-1.2,0.5-1.2,1.1c0,0,0,0.1,0,0.1v9c0,3.2,2.6,5.8,5.8,5.8
	h34.4c3.2,0,5.8-2.6,5.8-5.8v-7.9c0.6-0.2,1.2-0.5,1.7-0.9c1.6-1.2,2.5-3.1,2.8-5.7h4.7c3.9,0,7.1-3.2,7.1-7.1V37.7
	C79.3,33.8,76.1,30.6,72.2,30.6z M60.7,73.5c0,1.9-1.5,3.5-3.5,3.5H22.8c-1.9,0-3.5-1.5-3.5-3.5v-1.3h41.3V73.5z M77,52
	c0,2.6-2.1,4.8-4.8,4.8h-5.8c-0.6,0-1.1,0.5-1.1,1.1c-0.1,2.5-0.8,4.2-2,5.1c-0.4,0.3-0.9,0.5-1.4,0.7c1.3-2.3,0.4-5.6,0.3-6
	c-0.1-0.5-0.6-0.8-1.1-0.8h-7c-2.6,0-4.8-2.1-4.8-4.8V37.7c0-2.6,2.1-4.8,4.8-4.8h18.2c2.6,0,4.8,2.1,4.8,4.8L77,52z"/>
<path class="st0" d="M66.5,42.9c1.5-1.9,1.2-4.6-0.7-6.1c-1.9-1.5-4.6-1.2-6.1,0.7c-1.3,1.6-1.3,3.9,0,5.5c-1.9,1-3.1,3-3.1,5.2v0.1
	c0,1.6,1.3,2.8,2.8,2.8h7.4c1.6,0,2.8-1.3,2.8-2.8v-0.1C69.6,45.9,68.4,43.9,66.5,42.9z M63.1,38.1c1.1,0,2.1,0.9,2.1,2.1
	c0,1.1-0.9,2.1-2.1,2.1c-1.1,0-2.1-0.9-2.1-2.1l0,0C61,39,62,38.1,63.1,38.1L63.1,38.1z M67.3,48.2c0,0.3-0.2,0.5-0.5,0.5h-7.4
	c-0.3,0-0.5-0.2-0.5-0.5v-0.1c0-1.9,1.6-3.5,3.5-3.5h1.4c1.9,0,3.5,1.6,3.5,3.5L67.3,48.2z"/>
<path class="st0" d="M54.1,14.9H37.9c-0.6,0-1.2,0.5-1.2,1.1c0,0.6,0.5,1.2,1.1,1.2c0,0,0.1,0,0.1,0h16.3c0.6,0,1.2-0.5,1.2-1.1
	C55.4,15.5,54.9,15,54.1,14.9C54.2,14.9,54.2,14.9,54.1,14.9z"/>
<path class="st0" d="M54.1,19.5H37.9c-0.6,0-1.2,0.5-1.2,1.1c0,0.6,0.5,1.2,1.1,1.2c0,0,0.1,0,0.1,0h16.3c0.6,0,1.2-0.5,1.2-1.1
	C55.4,20.1,54.9,19.6,54.1,19.5C54.2,19.5,54.2,19.5,54.1,19.5z"/>
<path class="st0" d="M55.3,25.3c0-0.6-0.5-1.2-1.2-1.2H37.9c-0.6,0-1.2,0.5-1.2,1.1c0,0.6,0.5,1.2,1.1,1.2c0,0,0.1,0,0.1,0h16.3
	C54.8,26.4,55.3,25.9,55.3,25.3z"/>
<path class="st0" d="M42.8,48.6c0-0.6-0.5-1.2-1.2-1.2l0,0H25.4c-0.6,0-1.2,0.5-1.2,1.2l0,0v4.6c0,0.6,0.5,1.2,1.2,1.2h16.3
	c0.6,0,1.2-0.5,1.2-1.2V48.6z M40.5,52h-14v-2.3h14V52z"/>
<path class="st0" d="M41.6,56.6H25.4c-0.6,0-1.2,0.5-1.2,1.1c0,0.6,0.5,1.2,1.1,1.2c0,0,0.1,0,0.1,0h16.3c0.6,0,1.2-0.5,1.2-1.1
	S42.4,56.6,41.6,56.6C41.7,56.6,41.7,56.6,41.6,56.6L41.6,56.6z"/>
</svg>
