<?xml version="1.0" encoding="utf-8"?>
<!-- Generator: Adobe Illustrator 23.0.0, SVG Export Plug-In . SVG Version: 6.00 Build 0)  -->
<svg version="1.1" id="Layer_2" xmlns="http://www.w3.org/2000/svg" xmlns:xlink="http://www.w3.org/1999/xlink" x="0px" y="0px"
	 viewBox="0 0 80 80" style="enable-background:new 0 0 80 80;" xml:space="preserve">
<style type="text/css">
	.st0{fill:#CDB064;}
</style>
<title>EQUIPO_CREATIVO</title>
<path class="st0" d="M40,36.1c-2.8,0.1-5.1-0.9-6.2-3.6c-0.4-1-0.4-2.3-0.5-3.4c-0.1-1.7-0.3-3.3-1.3-4.8c-0.4-0.6-0.8-1.1-1.3-1.6
	C26,17.5,26.3,9.5,31.4,4.7C34.2,2.1,38,1,41.8,1.5c5.4,0.8,9.7,4.9,10.6,10.1c0.7,4.2-0.3,7.9-3.2,11c-1.7,1.8-2.6,3.9-2.5,6.4
	c0,0.7,0,1.5-0.1,2.2c-0.5,2.7-2.8,4.7-5.5,4.9C40.7,36.2,40.4,36.1,40,36.1z M41.4,27.2c0.8,0,1.5,0,2.2,0c0.2-0.1,0.4-0.2,0.5-0.5
	c0.4-2.5,1.8-4.4,3.4-6.3c3.4-3.9,3.2-9.6-0.4-13.3c-2.8-2.9-7.2-3.8-10.9-2.2c-3.6,1.5-6.1,5.2-6,9.2c0,2.7,1.1,5,2.9,7
	c1.2,1.3,2.1,2.8,2.6,4.5c0.2,0.5,0.2,1.3,0.5,1.6c0.4,0.3,1.2,0.1,1.7,0.1s0.8-0.2,0.8-0.7c0-2.1,0-4.3,0-6.4
	c0-0.6-0.2-1.1-0.6-1.5c-1.2-1.1-2.3-2.3-3.5-3.5c-0.6-0.6-0.6-1.5,0-2c0.6-0.6,1.3-0.5,2,0c0.2,0.2,0.4,0.4,0.7,0.7l2.9,2.9
	c1.2-1.2,2.3-2.4,3.4-3.5c0.7-0.7,1.5-0.7,2.1-0.2c0.6,0.6,0.6,1.4-0.1,2.1c-0.8,0.8-1.6,1.7-2.5,2.5c-1.2,1-1.6,2.1-1.5,3.6
	C41.5,23.2,41.4,25.1,41.4,27.2z M36.2,30.1c-0.2,1.6,1,3.1,2.6,3.2c0.8,0.1,1.6,0.1,2.4,0c1.7-0.2,2.9-1.7,2.6-3.2L36.2,30.1z"/>
<path class="st0" d="M7.5,65.6c-5.2-4.3-4.2-10.7-1.1-13.7c3.6-3.5,9.2-3.5,12.7,0c3.3,3.2,4.1,9.4-1,13.7c0.3,0.1,0.5,0.3,0.7,0.4
	c4.2,2.4,6.5,6,6.7,10.9c0.1,1.1-0.5,1.7-1.3,1.8c-0.9,0-1.4-0.6-1.5-1.7c-0.2-5.5-4.8-9.9-10.4-9.7c-5.3,0.2-9.5,4.4-9.7,9.7
	c-0.1,1.3-0.9,2-1.9,1.6C0.3,78.3,0,77.8,0,77c0.2-5,2.6-8.7,6.9-11.1C7.1,65.8,7.3,65.7,7.5,65.6z M6.7,58.2c0,3.4,2.8,6.2,6.2,6.2
	s6.2-2.8,6.2-6.2c0-3.4-2.7-6.2-6.2-6.2C9.5,52,6.7,54.8,6.7,58.2z"/>
<path class="st0" d="M72.5,65.6c2.1,1.1,3.9,2.5,5.2,4.4c1.4,2,2.2,4.5,2.3,6.9c0,1.1-0.5,1.7-1.4,1.7c-0.8,0-1.4-0.6-1.4-1.6
	c-0.2-4.9-3.5-8.7-8.2-9.6c-5.9-1.2-11.6,3.4-11.9,9.4c0,0.2,0,0.4,0,0.5c-0.1,0.8-0.7,1.4-1.5,1.3c-0.8,0-1.3-0.7-1.3-1.4
	c0,0,0,0,0,0c0-2.6,0.8-5.1,2.2-7.2c1.3-1.9,3.1-3.4,5.3-4.4c-2.8-2.3-4.1-5.2-3.6-8.8c0.3-2.2,1.5-4.2,3.3-5.6
	c3.8-3,9.2-2.5,12.4,1.3C76.8,55.7,77.4,61.6,72.5,65.6z M73.4,58.3c0-3.4-2.8-6.2-6.2-6.2c-3.4,0-6.2,2.8-6.2,6.2
	c0,3.4,2.8,6.2,6.2,6.2C70.6,64.4,73.4,61.7,73.4,58.3z"/>
<path class="st0" d="M45.4,65.5c1,0.7,1.9,1.2,2.8,1.9c3,2.5,4.5,5.7,4.7,9.5c0,1.1-0.5,1.7-1.4,1.7c-0.9,0-1.4-0.6-1.4-1.7
	c-0.2-5.3-4.3-9.4-9.6-9.7c-5-0.3-9.6,3.5-10.3,8.6c-0.1,0.4,0,0.8-0.1,1.2c-0.1,0.9-0.6,1.5-1.4,1.5c-0.8,0-1.4-0.6-1.4-1.6
	c0.2-5,2.5-8.6,6.8-11.1c0.2-0.1,0.4-0.2,0.5-0.3c0.1,0,0.1-0.1,0.2-0.1C32.3,63.6,31,61.1,31,58c0-2.4,1-4.6,2.7-6.2
	c3.5-3.4,9-3.4,12.5-0.1c2,1.8,3,4.4,2.8,7.1C48.8,61.6,47.5,63.8,45.4,65.5z M33.8,58.3c0,3.4,2.8,6.2,6.2,6.2s6.2-2.8,6.2-6.2
	c0-3.4-2.8-6.2-6.2-6.2C36.6,52.1,33.8,54.8,33.8,58.3z"/>
<path class="st0" d="M27.4,37.4c-0.3,0.5-0.4,0.9-0.7,1.2c-2.7,2.7-5.4,5.5-8.2,8.2c-0.7,0.7-1.5,0.7-2.1,0.1
	c-0.6-0.6-0.6-1.4,0.1-2.1c2.7-2.7,5.4-5.4,8.1-8.1c0.5-0.5,1-0.7,1.6-0.4C26.7,36.5,27,37,27.4,37.4z"/>
<path class="st0" d="M54.2,36c0.5,0.3,0.9,0.5,1.2,0.7c2.7,2.7,5.5,5.4,8.2,8.2c0.6,0.6,0.7,1.4,0.1,2c-0.6,0.6-1.4,0.6-2,0
	c-2.8-2.7-5.5-5.5-8.3-8.3c-0.4-0.4-0.7-1-0.3-1.6C53.3,36.6,53.7,36.3,54.2,36z"/>
<path class="st0" d="M41.4,43.5c0,0.8,0,1.7,0,2.6c0,0.9-0.6,1.5-1.4,1.5c-0.8,0-1.4-0.5-1.4-1.4c0-1.7,0-3.4,0-5.1
	c0-0.9,0.6-1.5,1.4-1.5c0.8,0,1.4,0.6,1.4,1.4C41.4,41.8,41.4,42.7,41.4,43.5z"/>
</svg>
