<?xml version="1.0" encoding="utf-8"?>
<!-- Generator: Adobe Illustrator 23.0.0, SVG Export Plug-In . SVG Version: 6.00 Build 0)  -->
<svg version="1.1" id="Layer_1" xmlns="http://www.w3.org/2000/svg" xmlns:xlink="http://www.w3.org/1999/xlink" x="0px" y="0px"
	 viewBox="0 0 80 80" style="enable-background:new 0 0 80 80;" xml:space="preserve">
<style type="text/css">
	.st0{fill:#D4B564;}
</style>
<title>EVENTOS</title>
<path class="st0" d="M7.9,65.1L7.9,65.1z M7.9,65.1C8.1,65.1,7.6,64.9,7.9,65.1z M69.1,65.1L69.1,65.1z M69.1,65.1
	C69.3,65.1,68.9,64.9,69.1,65.1z M76.3,69.5c0-0.1,0-0.2,0-0.3c0-1-0.2-2.1-0.6-3c-0.3-0.6-0.7-1.1-1.3-1.5c0-0.1,0-0.3,0-0.4
	c0.1-0.8,0-1.6,0-2.3c0-7.6-0.2-15.3-0.3-22.9c-0.1-6.7-0.1-13.4-0.5-20c0-0.2,0-0.4,0-0.6c0,0,0,0,0,0c2-0.8,3.7-2.2,4.8-4
	c2.4-3.7,1.9-8.9-1.7-11.6c-2.3-1.8-5.6-2.5-8.4-1.5c-1.5,0.5-2.8,1.3-3.9,2.5c-1,1-1.8,2.1-2.4,3.4c-0.9,2-1.2,4.3-0.3,6.4
	c0.5,1.2,1.2,2.2,2.1,3.1c-1.1,0.5-2.1,1-3.2,1.4c-1.8,0.7-3.5,1.3-5.3,1.9c-3.7,1.2-7.4,2.2-11.2,3c-3.7,0.7-7.4,0.8-11.2,0.5
	c-3.5-0.2-6.8-0.4-10.2-1.5c-1.8-0.6-3.5-1.3-5.2-2.2c-1.2-0.6-2.4-1.5-3.6-2c1.4-0.8,2.6-2,3.5-3.4c2.4-3.7,1.9-8.9-1.7-11.6
	C13.3,1,9.9,0.3,7.1,1.3C5.7,1.8,4.3,2.6,3.3,3.8c-1,1-1.8,2.1-2.4,3.4c-0.9,2-1.2,4.3-0.3,6.4c0.9,2.2,2.6,3.9,4.8,4.9
	c0.1,0,0.2,0.1,0.3,0.1c0,0.1,0,0.1,0,0l0,0c0,0.1,0,0.2,0,0.3c0,0.2,0,0.3,0,0.5c-0.1,1.5-0.2,3-0.3,4.6C5.1,28,5,32.3,4.9,36.5
	c-0.1,7.7-0.3,15.4-0.5,23.1c0,0.7,0,1.3-0.1,2c-0.1,1-0.2,2-0.1,3C4,64.8,3.7,65,3.5,65.3c-0.5,0.8-0.8,1.7-0.9,2.6
	c0,0.6,0,1.2,0.1,1.8c-0.6,0.3-1.1,0.7-1.6,1.2c-0.9,0.8-1.3,2-1.2,3.2c0.1,1.4,0.6,2.7,1.8,3.5c1,0.7,2.1,1,3.3,1.2
	c2.6,0.6,5.5,0.7,8.1-0.1c2-0.6,4.2-1.9,4.7-4.2c0.3-1.4-0.2-2.9-1.3-3.9c-0.4-0.4-0.9-0.7-1.5-1c0-0.1,0-0.2,0-0.3
	c0-1-0.2-2.1-0.6-3c-0.3-0.6-0.7-1.1-1.3-1.5c0-0.1,0-0.3,0-0.4c0.1-0.8,0-1.6,0-2.3c0-7.6-0.2-15.3-0.3-22.9
	c-0.1-5.4-0.1-10.9-0.3-16.4c0.2,0.2,0.4,0.5,0.6,0.7c1.4,1.6,2.9,3,4.6,4.3c3.5,2.6,7.6,4,11.8,5c4.8,1.1,9.8,1.7,14.6,0.7
	c4.6-0.9,9-2.4,13.2-4.5c2.3-1.2,4.4-2.6,6.4-4.2c1-0.8,1.8-1.7,2.7-2.5c0,0.6-0.1,1.1-0.1,1.7c-0.1,4.2-0.2,8.4-0.3,12.7
	c-0.1,7.7-0.3,15.4-0.5,23.1c0,0.7,0,1.3-0.1,2c-0.1,1-0.2,2-0.1,3c-0.3,0.2-0.5,0.4-0.7,0.7c-0.5,0.8-0.8,1.7-0.9,2.6
	c0,0.6,0,1.2,0.1,1.8c-0.6,0.3-1.1,0.7-1.6,1.2c-0.9,0.8-1.3,2-1.2,3.2c0.1,1.4,0.6,2.7,1.8,3.5c1,0.7,2.1,1,3.3,1.2
	c2.6,0.6,5.5,0.7,8.1-0.1c2-0.6,4.2-1.9,4.7-4.2c0.3-1.4-0.2-2.9-1.3-3.9C77.3,70.1,76.8,69.8,76.3,69.5z M13.7,72.6
	c0.2,0.1,0.4,0.3,0.5,0.5c0.2,0.4,0.1,0.7-0.2,1.1c-0.5,0.4-1,0.7-1.6,0.9c-0.9,0.3-1.9,0.5-2.8,0.5c-1.1,0-2.2-0.1-3.3-0.2
	c-0.5-0.1-1.1-0.2-1.6-0.3c-0.4-0.1-0.8-0.1-1.1-0.4c-0.5-0.4-0.6-1.2-0.6-1.8c0-0.5,0.3-0.9,0.6-1.2c0.3,0.5,0.6,0.9,1,1.2
	c1.7,1.4,4.4,1.6,6.5,1.2C12.1,74,13,73.4,13.7,72.6z M8.3,26c0-1.7,0-3.3-0.1-5c0-0.6-0.1-1.3-0.1-1.9c0.5,0,0.9,0.1,1.4,0
	c0.1,1.6,0,3.3,0.1,4.9c0.1,3.7,0.2,7.4,0.2,11.2c0.1,8,0.4,16.1,0.3,24.1c0,1.2,0,2.4,0,3.6c0,0.4,0,0.7,0,1.1c0,0.1,0,0.2,0,0.3
	l0,0c-0.1,0.1-0.1,0.3-0.1,0.4c0,0,0,0.1,0,0.1l0,0l0,0l0,0c0,0-0.1,0.1-0.1,0.1c-0.1,0-0.2,0-0.3,0.1l-0.1,0H9.1
	c-0.4,0-0.8,0-1.3,0l0,0l0,0l0,0c0,0-0.1,0-0.1-0.1c0,0-0.1-0.1-0.1-0.1l0,0c0-0.1-0.1-0.2-0.1-0.3c0-0.1,0-0.2,0-0.2
	c0,0,0-0.3,0-0.3c0-0.2,0-0.4,0-0.5c0-1,0.2-2.1,0.2-3.1C7.9,53.2,8,46,8.1,38.8C8.2,34.6,8.3,30.3,8.3,26z M8.1,68.4
	c1.2,0.1,2.4,0,3.4-0.7c0,0.2,0.1,0.3,0.1,0.5c0,0.1,0,0.1,0,0.2c0,0.1,0,0.1,0,0.1c0,0.2,0,0.3,0,0.5c0,0.1,0,0.2,0,0.3
	c-0.1,0.2-0.1,0.4-0.1,0.5c-0.2,0.5-0.6,0.9-1.1,1c-0.8,0.1-1.6,0.1-2.4,0.1c-0.6,0-1.2-0.2-1.7-0.6c0,0-0.1-0.2-0.2-0.2
	C6.1,69.9,6,69.7,6,69.6c0,0-0.1-0.3-0.1-0.3c0-0.2-0.1-0.3-0.1-0.5c-0.1-0.4-0.1-0.9-0.1-1.3C6.3,68,7.2,68.3,8.1,68.4L8.1,68.4z
	 M12.3,14.5c-1.4,0.9-2.5,1.1-4.1,1c-0.1,0-0.2,0-0.2,0H7.8c-0.2,0-0.4-0.1-0.6-0.1c-0.3-0.1-0.7-0.2-1-0.3c-0.7-0.3-1.4-0.8-2-1.4
	c-1-1-1.4-2.4-1.3-3.7C3,8.8,3.4,7.7,4,6.8c0.9-0.9,1.8-1.8,3-2.2c1.7-0.6,3.7-0.5,5.3,0.3c0.4,0.2,0.7,0.4,1,0.6
	c0.3,0.2,0.5,0.4,0.7,0.6c0.1,0.1,0.2,0.3,0.3,0.3s0.2,0.3,0.2,0.3c0.1,0.1,0.2,0.3,0.3,0.5c0,0.1,0.1,0.1,0.1,0.2c0,0,0,0.1,0,0.1
	c0.2,0.6,0.4,1.2,0.3,1.9c0,0.2,0,0.4,0,0.5c0,0,0,0.1,0,0.1c0,0.1,0,0.1,0,0.2c-0.1,0.4-0.2,0.8-0.3,1.2c0,0-0.1,0.3-0.1,0.3
	c-0.1,0.2-0.2,0.3-0.2,0.5c-0.2,0.3-0.4,0.6-0.6,0.9C13.4,13.6,12.9,14.1,12.3,14.5z M61.7,21.5c-1.5,1.3-3.1,2.5-4.9,3.5
	c-3.7,2.1-7.8,3.5-11.9,4.5c-4.2,1-8.5,0.9-12.7,0.2C28.4,29,24.6,28,21.1,26c-1.1-0.6-2.2-1.4-3.3-2.2c0.7,0.4,1.5,0.7,2.2,1
	c3.4,1.4,6.9,1.9,10.6,2.1c4,0.3,8.1,0.5,12.1-0.1c4-0.6,7.9-1.7,11.7-2.9c2.1-0.7,4.2-1.5,6.3-2.2c0.5-0.2,1-0.4,1.5-0.6
	C62.1,21.2,61.9,21.4,61.7,21.5z M65.5,13.6c-1-1-1.4-2.4-1.3-3.7c0.1-1.1,0.5-2.2,1.1-3.1c0.9-0.9,1.8-1.8,3-2.2
	c1.7-0.6,3.7-0.5,5.3,0.3c0.4,0.2,0.7,0.4,1,0.6c0.3,0.2,0.5,0.4,0.7,0.6c0.1,0.1,0.2,0.3,0.3,0.3c0,0,0.2,0.3,0.2,0.3
	C75.8,6.8,75.9,7,76,7.1c0,0.1,0.1,0.1,0.1,0.2c0,0,0,0.1,0,0.1c0.2,0.6,0.4,1.2,0.3,1.9c0,0.2,0,0.4,0,0.5c0,0,0,0.1,0,0.1
	c0,0.1,0,0.1,0,0.2c-0.1,0.4-0.2,0.8-0.3,1.2c0,0-0.1,0.3-0.1,0.3c-0.1,0.2-0.2,0.3-0.2,0.5c-0.2,0.3-0.4,0.6-0.6,0.9
	c-0.5,0.6-1,1.1-1.7,1.5c-1.4,0.9-2.5,1.1-4.1,1c-0.1,0-0.2,0-0.2,0h-0.1c-0.2,0-0.4-0.1-0.6-0.1c-0.3-0.1-0.7-0.2-1-0.3
	C66.7,14.7,66,14.2,65.5,13.6L65.5,13.6z M69.5,26c0-1.7,0-3.3-0.1-5c0-0.6-0.1-1.3-0.1-1.9c0.5,0,0.9,0.1,1.4,0
	c0.1,1.6,0,3.3,0.1,4.9c0.1,3.7,0.2,7.4,0.2,11.2c0.1,8,0.4,16.1,0.3,24.1c0,1.2,0,2.4,0,3.6c0,0.4,0,0.7,0,1.1c0,0.1,0,0.2,0,0.3
	l0,0c-0.1,0.1-0.1,0.3-0.1,0.4c0,0,0,0.1,0,0.1l0,0l0,0l0,0c0,0-0.1,0.1-0.1,0.1c-0.1,0-0.2,0-0.3,0.1l-0.1,0h-0.1
	c-0.4,0-0.8,0-1.3,0l0,0l0,0l0,0c0,0-0.1,0-0.1-0.1c0,0-0.1-0.1-0.1-0.1l0,0c0-0.1-0.1-0.2-0.1-0.3c0-0.1,0-0.2,0-0.2
	c0,0,0-0.3,0-0.3c0-0.2,0-0.4,0-0.5c0-1,0.2-2.1,0.2-3.1c0.2-7.2,0.3-14.3,0.5-21.5C69.5,34.6,69.6,30.3,69.5,26L69.5,26z
	 M69.3,68.3c1.2,0.1,2.4,0,3.4-0.7c0,0.2,0.1,0.3,0.1,0.5c0,0.1,0,0.1,0,0.2s0,0.1,0,0.1c0,0.2,0,0.3,0,0.5c0,0.1,0,0.2,0,0.3
	c-0.1,0.2-0.1,0.4-0.1,0.5c-0.2,0.5-0.6,0.9-1.1,1c-0.8,0.1-1.6,0.1-2.4,0.1c-0.6,0-1.2-0.2-1.7-0.6c0,0-0.1-0.2-0.2-0.2
	c-0.1-0.2-0.2-0.3-0.3-0.5c0,0-0.1-0.3-0.1-0.3c0-0.2-0.1-0.3-0.1-0.5c-0.1-0.4-0.1-0.9-0.1-1.3C67.6,68,68.4,68.3,69.3,68.3
	L69.3,68.3z M75.2,74.2c-0.5,0.4-1,0.7-1.6,0.9c-0.9,0.3-1.9,0.5-2.8,0.5c-1.1,0-2.2-0.1-3.3-0.2c-0.5-0.1-1.1-0.2-1.6-0.3
	c-0.4-0.1-0.8-0.1-1.1-0.4c-0.5-0.4-0.6-1.2-0.6-1.8c0-0.5,0.3-0.9,0.6-1.2c0.3,0.5,0.6,0.9,1,1.2c1.7,1.4,4.4,1.6,6.5,1.2
	c1-0.2,2-0.7,2.7-1.6c0.2,0.1,0.4,0.3,0.5,0.5C75.7,73.5,75.6,73.9,75.2,74.2L75.2,74.2z"/>
</svg>
