<?xml version="1.0" encoding="utf-8"?>
<!-- Generator: Adobe Illustrator 23.0.0, SVG Export Plug-In . SVG Version: 6.00 Build 0)  -->
<svg version="1.1" id="Layer_1" xmlns="http://www.w3.org/2000/svg" xmlns:xlink="http://www.w3.org/1999/xlink" x="0px" y="0px"
	 viewBox="0 0 80 80" style="enable-background:new 0 0 80 80;" xml:space="preserve">
<style type="text/css">
	.st0{fill:#CDB064;}
</style>
<title>LIKE</title>
<path class="st0" d="M46.6,79.2c-1.4-0.2-2.8-0.3-4.1-0.6c-4.6-0.8-9-2.3-13.4-3.8c-1.2-0.4-2.4-0.8-3.6-1.1
	c-1.3-0.3-2.5-0.5-3.8-0.5c-4-0.1-8,0-12,0c-4,0-6.5-2.5-6.5-6.4c0-9.8,0-19.6,0-29.4c0-3.9,2.6-6.4,6.5-6.4c4,0,8.1,0,12.1,0
	c0.5,0,0.9-0.2,1.3-0.5c1.4-1.4,2.7-2.8,4-4.3c2.4-2.8,4.8-5.7,7.2-8.5c0.9-1.1,1.3-2.5,1.6-3.8c0.5-2.2,1-4.4,1.7-6.6
	c0.3-1.1,0.8-2.1,1.5-3c1.6-2.4,3.8-3.6,6.8-3.3c1.5,0.2,2.9,0.4,4.3,0.8c4.5,1.4,7,4.6,7.8,9.1c0.9,4.7,0.6,9.2-1.5,13.5
	c-0.1,0.2-0.1,0.4-0.2,0.7H57c2.4,0,4.8,0.1,7.2,0c7.5-0.4,15.5,7.5,11.5,17.1c-0.7,1.7-1.2,3.2-0.9,5.1c0.4,2.4-0.3,4.8-1.5,7
	c-0.2,0.3-0.2,0.7-0.2,1.1c0.3,3.4-0.4,6.5-2.4,9.3c-0.2,0.3-0.4,0.7-0.4,1.1c-0.1,3.6-1.1,6.8-3.7,9.4c-2.4,2.3-5.3,3.6-8.6,4
	c-0.3,0-0.5,0.1-0.7,0.2L46.6,79.2z M47.6,31c0.1-0.7,0.1-1.3,0.3-1.8c0.8-2.1,1.5-4.3,2.4-6.4c1.5-3.4,2.5-6.8,1.7-10.5
	c-0.5-2.3-1.4-4.4-4-5c-3.6-0.8-3.8-1-5,2.8c-0.5,1.6-0.8,3.2-1.2,4.8c-0.6,2.6-1.6,5.1-3.5,7.2c-2,2.2-3.9,4.6-5.8,6.9
	c-1.8,2.3-3.7,4.5-5.9,6.3c-1.2,1-2.6,1.7-4.3,1.6c-0.2,0-0.4,0-0.6,0.1v30c0.8,0,1.6,0,2.4,0.1c2.8,0.3,5.5,1.3,8.1,2.3
	c7.6,2.8,15.4,4.2,23.5,3.6c1.1-0.1,2.3-0.2,3.4-0.5c2.7-0.7,4.5-2.4,4.9-5.2c0.2-1.4,0.1-2.8,0.1-4.2c0-0.3,0.1-0.6,0.3-0.8
	c2.6-2.1,3.5-5.4,2.1-8.5c-0.2-0.5-0.1-0.7,0.2-1c1.9-2.1,2.5-4.6,1.7-7.3c-0.3-0.9-0.7-1.7-1-2.5c0.5-0.3,1.1-0.6,1.5-1
	c1.3-1.6,2-3.5,1.8-5.6c-0.3-3.1-3-5.5-6.3-5.5c-5.2,0-10.4,0-15.7,0L47.6,31z M12.3,67.1c1.6,0,3-1.3,3.1-2.9c0,0,0-0.1,0-0.1
	c0-1.7-1.4-3-3-3c0,0,0,0,0,0c-1.7,0-3,1.3-3.1,2.9s1.3,3,2.9,3.1C12.2,67.1,12.2,67.1,12.3,67.1L12.3,67.1z"/>
</svg>
