<?xml version="1.0" encoding="utf-8"?>
<!-- Generator: Adobe Illustrator 23.0.0, SVG Export Plug-In . SVG Version: 6.00 Build 0)  -->
<svg version="1.1" id="Layer_1" xmlns="http://www.w3.org/2000/svg" xmlns:xlink="http://www.w3.org/1999/xlink" x="0px" y="0px"
	 viewBox="0 0 80 80" style="enable-background:new 0 0 80 80;" xml:space="preserve">
<style type="text/css">
	.st0{fill:#CDB064;stroke:#CDB064;stroke-width:2;stroke-miterlimit:10;}
</style>
<title>REATIL</title>
<path class="st0" d="M78.3,32.2c-2.9,2.9-5.8,5.7-8.7,8.6c-3,3-6.1,5.9-9.1,8.9c-0.4,0.3-0.5,0.8-0.4,1.2c1.2,6.8,2.3,13.6,3.5,20.4
	c0.2,1.1,0.3,2.2,0.6,3.2c0.1,0.7,0.1,1.2-0.5,1.7c-0.6,0.5-1.2,0.3-1.8-0.1c-3.7-2-7.4-3.9-11.1-5.8c-3.4-1.8-6.8-3.6-10.2-5.4
	c-0.3-0.2-0.8-0.2-1.1,0c-7,3.7-14,7.3-20.9,11c-0.2,0.1-0.5,0.3-0.7,0.4c-0.5,0-1.1,0.1-1.4-0.2c-0.4-0.3-0.6-0.8-0.5-1.3
	c0.7-4.4,1.5-8.7,2.2-13.1c0.6-3.6,1.2-7.2,1.9-10.8c0.1-0.5,0-0.9-0.4-1.2c-5.7-5.5-11.3-11-16.9-16.5c-0.1-0.1-0.2-0.2-0.3-0.3
	c-0.4-0.4-0.7-0.9-0.5-1.5c0.2-0.6,0.7-0.9,1.3-1c2.2-0.3,4.3-0.6,6.5-0.9c5.9-0.8,11.7-1.7,17.6-2.6c0.3,0,0.6-0.4,0.8-0.7
	c3.3-6.7,6.6-13.3,9.9-20c0.3-0.5,0.5-1,0.8-1.5c0.3-0.6,0.7-1,1.4-1s1.1,0.4,1.3,1c2.3,4.6,4.6,9.3,6.9,13.9
	c1.3,2.5,2.5,5.1,3.8,7.6c0.2,0.4,0.6,0.7,1,0.8c5.6,0.8,11.2,1.6,16.8,2.4c2.2,0.3,4.5,0.7,6.7,1c0.7,0.1,1.3,0.4,1.7,1.1
	L78.3,32.2z M40,8.1c-0.2,0.4-0.3,0.6-0.4,0.9c-3.2,6.4-6.3,12.8-9.5,19.3c-0.3,0.6-0.7,1.1-1.5,1.2c-5.8,0.8-11.7,1.7-17.5,2.5
	c-1.6,0.2-3.2,0.5-4.9,0.7l-0.2,0.2c0.2,0.1,0.5,0.3,0.7,0.5c5.2,5,10.3,10,15.5,15.1c0.5,0.5,0.8,1.1,0.7,1.9
	c-1.1,6.1-2.1,12.1-3.1,18.2c-0.2,1.3-0.4,2.7-0.7,4.1c0.4-0.2,0.6-0.3,0.8-0.4c6.3-3.3,12.5-6.6,18.7-9.9c1.1-0.6,1.9-0.5,2.9,0
	c6.3,3.3,12.6,6.6,18.9,9.9c0.2,0.1,0.3,0.1,0.6,0.2c0-0.3-0.1-0.5-0.1-0.7c-1.2-7.1-2.4-14.2-3.7-21.3c-0.2-1,0-1.6,0.8-2.3
	c4.2-4,8.3-8,12.4-12.1c1.1-1.1,2.2-2.4,3.3-3.5c-0.1,0-0.3-0.1-0.5-0.1c-7.1-1-14.2-2.1-21.3-3.1c-0.9-0.1-1.5-0.6-1.9-1.4
	c-3.1-6.4-6.3-12.8-9.5-19.2C40.3,8.6,40.2,8.4,40,8.1z"/>
</svg>
