<?xml version="1.0" encoding="utf-8"?>
<!-- Generator: Adobe Illustrator 23.0.0, SVG Export Plug-In . SVG Version: 6.00 Build 0)  -->
<svg version="1.1" id="Layer_3" xmlns="http://www.w3.org/2000/svg" xmlns:xlink="http://www.w3.org/1999/xlink" x="0px" y="0px"
	 viewBox="0 0 80 80" style="enable-background:new 0 0 80 80;" xml:space="preserve">
<style type="text/css">
	.st0{fill:#CDB064;}
</style>
<title>RH</title>
<path class="st0" d="M80,42.3c-0.4,1.7-1.4,3-2.5,4.2C73.7,51,69.8,55.4,66.1,60c-2.3,2.7-5.2,4.1-8.6,4.2c-4,0.2-8.1,0.1-12.1,0.1
	c-3.6,0-7.2,0-10.8,0.1c-1.2,0-2.4,0.2-3.5,0.3L30.8,65c0.3,0.1,0.6,0.2,0.8,0.4c0.9,0.9,0.9,1.8,0,2.7c-2.8,2.9-5.6,5.7-8.4,8.6
	c-0.6,0.6-1.2,1.3-1.9,1.9c-1,1-1.7,1-2.8,0C13.1,73.5,7.6,68.3,2.1,63c-0.5-0.5-1.1-1-1.6-1.5c-0.7-0.7-0.7-1.6,0-2.3
	c3.6-3.7,7.2-7.5,10.8-11.2c0.7-0.7,1.6-0.7,2.4,0c0.4,0.3,0.7,0.7,1.1,1s0.6,0.7,0.9,1.1c0.7-0.8,1.1-1.4,1.7-2
	c2.9-3.3,6.4-5.6,10.9-6.2c2.3-0.4,4.7-0.2,7,0.4c2.6,0.7,5.3,1,8,1c3.7,0,7.3,0,11,0c2.4,0,4.3,0.7,5.6,2.8
	c0.2-0.2,0.4-0.4,0.6-0.6c2.7-2.7,5.5-5.4,8.2-8.1c2.7-2.6,7-2.6,9.6,0.1c0.2,0.2,0.5,0.5,0.6,0.8c0.5,0.7,0.7,1.5,1.1,2.2L80,42.3z
	 M18.1,52.4c0.2,0.2,0.3,0.3,0.5,0.5c2.9,2.8,5.9,5.7,8.8,8.5c0.3,0.4,0.8,0.5,1.3,0.4c4.2-0.6,8.4-0.8,12.6-0.7
	c5.1,0,10.2,0,15.3,0c2.8,0,5.2-0.9,7.1-3.2c4-4.8,8.1-9.6,12.2-14.4c0.2-0.2,0.4-0.4,0.5-0.7c0.7-1.1,0.6-2.2-0.4-3.1
	c-1.4-1.4-3.7-1.5-5.2,0c-3.3,3.2-6.5,6.4-9.8,9.7c-0.2,0.2-0.4,0.5-0.4,0.8c-0.5,3.6-2.7,5.5-6.3,5.6c-2.8,0-5.5,0-8.3,0
	c-0.8,0-1.5,0-2.3,0c-0.8,0-1.5-0.7-1.5-1.5c0-0.9,0.6-1.6,1.5-1.6c0.2,0,0.5,0,0.7,0c3.4,0,6.8,0,10.2,0c1,0,1.8-0.3,2.4-1.1
	c0.8-1.2,0.8-2.4,0.2-3.6c-0.5-1.1-1.5-1.4-2.7-1.4c-3.6,0-7.2,0-10.9,0c-3.2,0-6.3-0.4-9.4-1.1C27.2,43.5,21.4,47.3,18.1,52.4z
	 M3.8,60.3l16.1,15.3l8.6-8.8l-16-15.5L3.8,60.3z"/>
<path class="st0" d="M25.4,15.4l2.8,2.4l2.8-2.4c-1.7-2.3-2.4-4.9-1.7-7.8c0.5-2.1,1.7-4,3.5-5.3c3.6-2.6,8.5-2.2,11.7,0.9
	c3,3,3.9,8,0.7,12.1l2.8,2.4l2.8-2.4c-1.9-2.5-2.5-5.3-1.5-8.4c0.6-2,1.9-3.7,3.6-4.8C56.3-0.2,61,0.2,64,3c3.5,3.2,3.8,7.3,1,12.5
	c0.3,0.2,0.5,0.3,0.8,0.5c2.3,1.6,3.5,3.8,3.6,6.7c0,2.3,0,4.7,0,7c0,2.5-1.5,4.1-4.1,4.1c-2,0-4,0-6,0c-2.8,0-5.7,0-8.5,0
	c-0.8,0-1.6-0.4-2.5-0.5c-0.2,0-0.4,0-0.6,0c-0.8,0.2-1.5,0.5-2.3,0.5c-4.8,0-9.7,0.1-14.5,0c-0.9,0-1.8-0.6-2.7-0.6
	c-0.9,0-1.7,0.6-2.6,0.6c-4.8,0.1-9.7,0-14.5,0c-2.7,0-4.2-1.5-4.2-4.2c0-2,0.1-4,0-5.9c-0.1-3.6,1.3-6.3,4.4-8.2
	C9.4,13,8.8,10.2,9.6,7.2c0.6-2,1.8-3.8,3.6-5c3.5-2.4,8.1-2.1,11.3,0.8C27.2,5.5,28.9,10.6,25.4,15.4z M57.9,30.7
	c2.5,0,4.9,0,7.4,0c0.7,0,0.9-0.3,0.9-0.9c0-2.3,0-4.7,0-7c0-2.2-1.5-4.2-3.7-4.8c-0.3-0.1-0.7-0.1-1,0.1c-2.3,1-5,1-7.4,0
	c-0.3-0.1-0.6-0.1-1,0c-2.2,0.6-3.7,2.6-3.7,5c0,2.2,0,4.4,0,6.6c0,0.9,0.2,1,1.1,1C53.1,30.7,55.5,30.7,57.9,30.7z M18.3,30.7
	c2.5,0,4.9,0,7.4,0c0.6,0,0.9-0.2,0.9-0.8c0-2.5,0-4.9-0.1-7.4c-0.1-2.1-1.6-3.9-3.7-4.5c-0.3-0.1-0.7-0.1-1,0.1c-2.3,1-5,1-7.4,0
	c-0.3-0.1-0.6-0.1-1,0c-2.1,0.6-3.6,2.5-3.6,4.7c0,2.3,0,4.7,0,7c0,0.8,0.3,1,1,1C13.5,30.6,15.9,30.7,18.3,30.7z M38.1,30.7
	c2.5,0,4.9,0,7.4,0c0.6,0,1-0.2,1-0.9c0-2.4,0-4.8,0-7.2c-0.1-2.2-1.6-4.1-3.7-4.6c-0.3-0.1-0.6,0-0.9,0.1c-2.3,1-5,1-7.4,0
	c-0.3-0.1-0.7-0.1-1,0c-2,0.6-3.5,2.4-3.6,4.5c-0.1,2.4,0,4.9,0,7.3c0,0.6,0.3,0.9,0.9,0.9C33.2,30.6,35.6,30.7,38.1,30.7z
	 M38.1,15.6c3.3,0,5.9-2.7,5.9-5.9s-2.7-5.9-5.9-5.9s-5.9,2.7-5.9,5.9c0,0,0,0,0,0C32.2,13,34.9,15.6,38.1,15.6z M24.2,9.7
	c0-3.3-2.6-5.9-5.9-5.9s-5.9,2.6-5.9,5.9c0,3.3,2.6,5.9,5.9,5.9c0,0,0,0,0,0C21.6,15.6,24.2,13,24.2,9.7z M52,9.7
	c0.1,3.3,2.8,5.9,6,5.8c3.2-0.1,5.7-2.6,5.8-5.8c0.1-3.3-2.5-6-5.8-6c-3.3-0.1-6,2.5-6,5.8C52,9.6,52,9.6,52,9.7L52,9.7z"/>
<path class="st0" d="M37.4,55.8c-0.9,0-1.6-0.7-1.6-1.6c0-0.9,0.7-1.6,1.6-1.6c0,0,0,0,0,0c0.9,0,1.6,0.7,1.6,1.5c0,0,0,0,0,0.1
	C39,55,38.3,55.8,37.4,55.8C37.5,55.8,37.4,55.8,37.4,55.8z"/>
</svg>
